<svg width="381" height="64" viewBox="0 0 381 64" fill="none" xmlns="http://www.w3.org/2000/svg">
    <style>
        .circles {
            animation-name: breathe;
            animation-duration: .82s;
            animation-iteration-count: infinite;
        }
        .circles:nth-child(2) {
            animation-delay: .16s;
        }
        @keyframes breathe {
            0% {opacity: 1;}
            50% {opacity: 0;}
            100% {opacity: 1;}
        }
    </style>

    <g>
        <path class="circles" fill-rule="evenodd" clip-rule="evenodd" d="M3 62C4.65685 62 6 60.6569 6 59C6 57.3431 4.65685 56 3 56C1.34315 56 0 57.3431 0 59C0 60.6569 1.34315 62 3 62Z" fill="#FFFFFF"/>
        <path class="circles" fill-rule="evenodd" clip-rule="evenodd" d="M17 59C17 61.2091 15.2091 63 13 63C10.7909 63 9 61.2091 9 59C9 56.7909 10.7909 55 13 55C15.2091 55 17 56.7909 17 59Z" fill="#FFFFFF"/>
        <path fill-rule="evenodd" clip-rule="evenodd" d="M63.0322 12.9661C58.8406 10.5367 53.9644 9.55874 49.1603 10.1841C44.3561 10.8094 39.8927 13.0031 36.4628 16.4246C33.0329 19.8461 30.8283 24.304 30.1911 29.1066C29.5539 33.9092 30.5199 38.7878 32.9389 42.9853C34.3178 45.3779 33.4961 48.4352 31.1035 49.814C28.711 51.1929 25.6537 50.3712 24.2748 47.9786C20.7561 41.8732 19.3512 34.777 20.278 27.7914C21.2048 20.8058 24.4115 14.3215 29.4004 9.3448C34.3894 4.3681 40.8816 1.17734 47.8695 0.267748C54.8573 -0.641848 61.95 0.780585 68.0468 4.31429C74.1435 7.84799 78.9034 13.2953 81.5876 19.8109C84.2718 26.3264 84.7302 33.5458 82.8918 40.3486C81.0533 47.1513 77.0208 53.157 71.42 57.4336C66.1067 61.4906 59.6639 63.7762 53 63.9844V64H52.0106H51.9895H43H41H25C22.2386 64 20 61.7615 20 59C20 56.2386 22.2386 54 25 54H41H43H51.8985L51.9427 54C56.7874 54.0126 61.5007 52.4257 65.3513 49.4856C69.2018 46.5455 71.9742 42.4166 73.2381 37.7397C74.502 33.0628 74.1868 28.0994 72.3415 23.62C70.4961 19.1406 67.2237 15.3955 63.0322 12.9661Z" fill="#FFFFFF"/>
    </g>
</svg>
