<svg width="381" height="64" viewBox="0 0 381 64" fill="none" xmlns="http://www.w3.org/2000/svg">
    <style>
        .circles {
            animation-name: breathe;
            animation-duration: .82s;
            animation-iteration-count: infinite;
        }
        .circles:nth-child(2) {
            animation-delay: .16s;
        }
        @keyframes breathe {
            0% {opacity: 1;}
            50% {opacity: 0;}
            100% {opacity: 1;}
        }
    </style>

    <g>
        <path class="circles" fill-rule="evenodd" clip-rule="evenodd" d="M3 62C4.65685 62 6 60.6569 6 59C6 57.3431 4.65685 56 3 56C1.34315 56 0 57.3431 0 59C0 60.6569 1.34315 62 3 62Z" fill="#FFFFFF"/>
        <path class="circles" fill-rule="evenodd" clip-rule="evenodd" d="M17 59C17 61.2091 15.2091 63 13 63C10.7909 63 9 61.2091 9 59C9 56.7909 10.7909 55 13 55C15.2091 55 17 56.7909 17 59Z" fill="#FFFFFF"/>
        <path fill-rule="evenodd" clip-rule="evenodd" d="M63.0322 12.9661C58.8406 10.5367 53.9644 9.55874 49.1603 10.1841C44.3561 10.8094 39.8927 13.0031 36.4628 16.4246C33.0329 19.8461 30.8283 24.304 30.1911 29.1066C29.5539 33.9092 30.5199 38.7878 32.9389 42.9853C34.3178 45.3779 33.4961 48.4352 31.1035 49.814C28.711 51.1929 25.6537 50.3712 24.2748 47.9786C20.7561 41.8732 19.3512 34.777 20.278 27.7914C21.2048 20.8058 24.4115 14.3215 29.4004 9.3448C34.3894 4.3681 40.8816 1.17734 47.8695 0.267748C54.8573 -0.641848 61.95 0.780585 68.0468 4.31429C74.1435 7.84799 78.9034 13.2953 81.5876 19.8109C84.2718 26.3264 84.7302 33.5458 82.8918 40.3486C81.0533 47.1513 77.0208 53.157 71.42 57.4336C66.1067 61.4906 59.6639 63.7762 53 63.9844V64H52.0106H51.9895H43H41H25C22.2386 64 20 61.7615 20 59C20 56.2386 22.2386 54 25 54H41H43H51.8985L51.9427 54C56.7874 54.0126 61.5007 52.4257 65.3513 49.4856C69.2018 46.5455 71.9742 42.4166 73.2381 37.7397C74.502 33.0628 74.1868 28.0994 72.3415 23.62C70.4961 19.1406 67.2237 15.3955 63.0322 12.9661Z" fill="#FFFFFF"/>
    </g>
    
    <g>
        <rect width="9" height="38" rx="4.5" transform="matrix(1 0 0 -1 104 54)" fill="#FFFFFF"/>
        <rect width="9" height="29" rx="4.5" transform="matrix(1 0 0 -1 124 54)" fill="#FFFFFF"/>
        <rect width="9" height="29" rx="4.5" transform="matrix(1 0 0 -1 144 54)" fill="#FFFFFF"/>
        <path d="M108.5 29.5C108.5 27.221 109.469 24.9643 111.313 23.2476C113.168 21.5207 115.748 20.5 118.5 20.5C121.252 20.5 123.832 21.5208 125.687 23.2476C127.531 24.9643 128.5 27.221 128.5 29.5" stroke="#FFFFFF" stroke-width="9" stroke-linecap="round" stroke-linejoin="round"/>
        <path d="M148.5 29.5C148.5 27.221 147.531 24.9643 145.687 23.2476C143.832 21.5207 141.252 20.5 138.5 20.5C135.748 20.5 133.168 21.5208 131.313 23.2476C129.469 24.9643 128.5 27.221 128.5 29.5" stroke="#FFFFFF" stroke-width="9" stroke-linecap="round" stroke-linejoin="round"/>
    </g>
    
    <g>
        <path fill-rule="evenodd" clip-rule="evenodd" d="M177 54C187.493 54 196 45.4934 196 35C196 24.5066 187.493 16 177 16C166.507 16 158 24.5066 158 35C158 45.4934 166.507 54 177 54ZM177 45C182.523 45 187 40.5228 187 35C187 29.4772 182.523 25 177 25C171.477 25 167 29.4772 167 35C167 40.5228 171.477 45 177 45Z" fill="#FFFFFF"/>
        <rect x="187" y="32" width="9" height="22" rx="4.5" fill="#FFFFFF"/>
    </g>

    <g>
        <rect x="201" y="16" width="9" height="38" rx="4.5" fill="#FFFFFF"/>
        <path d="M205.57 33.5754C205.775 31.5028 206.423 29.4986 207.472 27.6991C208.521 25.8997 209.945 24.3473 211.647 23.1476C213.35 21.9478 215.29 21.1289 217.338 20.7465C219.385 20.3641 221.491 20.4272 223.511 20.9316" stroke="#FFFFFF" stroke-width="9" stroke-linecap="round" stroke-linejoin="round"/>
    </g>
    
    <g>
        <path fill-rule="evenodd" clip-rule="evenodd" d="M252 54C262.493 54 271 45.4934 271 35C271 24.5066 262.493 16 252 16C241.507 16 233 24.5066 233 35C233 45.4934 241.507 54 252 54ZM252 45C257.523 45 262 40.5228 262 35C262 29.4772 257.523 25 252 25C246.477 25 242 29.4772 242 35C242 40.5228 246.477 45 252 45Z" fill="#FFFFFF"/>
        <rect x="233" width="9" height="38" rx="4.5" fill="#FFFFFF"/>
    </g>
    
    <g>
        <rect width="9" height="40" rx="4.5" transform="matrix(1 0 0 -1 276 40)" fill="#FFFFFF"/>
        <path d="M291.5 49.5C290.198 49.5 288.879 49.1876 287.606 48.5413C286.328 47.8925 285.101 46.9079 284.027 45.5905C282.951 44.2718 282.061 42.6602 281.443 40.8304C280.825 39.0011 280.5 37.0179 280.5 35" stroke="#FFFFFF" stroke-width="9" stroke-linecap="round" stroke-linejoin="round"/>
    </g>
    
    <g>
        <path d="M306.874 40.4395C305.007 40.9398 303.088 39.8318 302.588 37.9646C302.087 36.0975 303.196 34.1783 305.063 33.678L332.356 26.3647C333.174 26.1456 334.03 26.5511 334.379 27.3226C335.592 30.0087 334.108 33.1423 331.261 33.9052L306.874 40.4395Z" fill="#FFFFFF"/>
        <path d="M329.332 42.6278C327.632 45.3757 325.063 47.4771 322.033 48.5986C319.003 49.72 315.685 49.7973 312.606 48.8181C309.526 47.8389 306.863 45.8593 305.037 43.1935C303.211 40.5278 302.328 37.3286 302.528 34.1037C302.727 30.8789 303.999 27.8131 306.139 25.393C308.28 22.9729 311.168 21.3371 314.344 20.7453C317.521 20.1535 320.804 20.6396 323.672 22.1263C326.541 23.6131 328.831 26.0154 330.178 28.952" stroke="#FFFFFF" stroke-width="9" stroke-linecap="round" stroke-linejoin="round"/>
    </g>

    <g>
        <rect width="9" height="38" rx="4.5" transform="matrix(1 0 0 -1 341 54)" fill="#FFFFFF"/>
        <rect width="9" height="9" rx="4.5" transform="matrix(1 0 0 -1 341 13)" fill="#FFFFFF"/>
    </g>

    <g>
        <rect width="9" height="38" rx="4.5" transform="matrix(1 0 0 -1 361 42)" fill="#FFFFFF"/>
        <rect width="9" height="26" rx="4.5" transform="matrix(-4.37114e-08 1 1 4.37114e-08 355 16)" fill="#FFFFFF"/>
        <path d="M374.77 49.3438C372.306 48.8957 369.973 47.4861 368.238 45.2419C366.497 42.9897 365.5 40.0706 365.5 37" stroke="#FFFFFF" stroke-width="9" stroke-linecap="round" stroke-linejoin="round"/>
    </g>
</svg>
